Coordinates
version=1
nRows=6
nColumns=36
inDegrees=yes

Units are S.I. units (second, meters, Newtons, ...)
If the header above contains a line with 'inDegrees', this indicates whether rotational values are in degrees (yes) or radians (no).

endheader
time	pelvis_tilt	pelvis_list	pelvis_rotation	pelvis_tx	pelvis_ty	pelvis_tz	hip_flexion_r	hip_adduction_r	hip_rotation_r	knee_angle_r	knee_angle_r_beta	ankle_angle_r	subtalar_angle_r	mtp_angle_r	hip_flexion_l	hip_adduction_l	hip_rotation_l	knee_angle_l	knee_angle_l_beta	ankle_angle_l	subtalar_angle_l	mtp_angle_l	lumbar_extension	lumbar_bending	lumbar_rotation	arm_flex_r	arm_add_r	arm_rot_r	elbow_flex_r	pro_sup_r	arm_flex_l	arm_add_l	arm_rot_l	elbow_flex_l	pro_sup_l
      1.62916670	     -7.34563912	      0.72611241	      0.87754780	     -0.98169294	      1.20642342	     -0.07242469	     25.80814882	     -1.82866745	     -2.21852072	     31.94669190	      0.55757496	      4.81574216	    -23.27060662	     -7.49999987	     23.49765391	      2.01074664	      1.95853026	     29.66524379	      0.51775618	      5.75238435	    -17.52396551	     -7.49999987	    -24.87597784	      1.89530327	     -2.04814794	      9.55675685	     -4.21369158	     -0.50102693	     32.17007851	     90.90267448	     12.26775453	     -5.47337699	     15.75730259	     34.27275672	     99.06182007
      1.63333330	     -7.49118772	      0.73671305	      0.90567429	     -0.98322561	      1.20296225	     -0.07271436	     26.17582495	     -1.77873885	     -2.07249766	     32.23932282	      0.56268233	      4.79358620	    -23.49692787	     -7.49999987	     23.82443551	      1.98958197	      1.96379812	     29.86470072	      0.52123736	      5.81382599	    -17.59275831	     -7.49999987	    -24.74948612	      1.83212267	     -1.96069572	      9.47413999	     -4.27560678	     -0.11496621	     32.28372521	     89.93828183	     12.31357192	     -5.61688632	     16.47379844	     34.37741024	     97.83167092
      1.63750000	     -7.70007150	      0.75471443	      1.01447768	     -0.98384835	      1.20155886	     -0.07312454	     26.65889052	     -1.80105698	     -2.02528685	     32.64385778	      0.56974280	      5.03296496	    -23.39797197	     -7.49999987	     24.22996787	      2.00246625	      1.90120117	     30.09142723	      0.52519448	      5.79320877	    -17.89201243	     -7.49999987	    -24.45249967	      1.79894945	     -1.96209295	      9.36803122	     -4.20850316	     -0.22830737	     32.30906875	     89.60307976	     12.32557685	     -5.63061259	     16.66165714	     34.37349842	     97.44022159
      1.64166670	     -7.74809553	      0.75040307	      1.07803874	     -0.98585602	      1.20660465	     -0.07454979	     26.76785629	     -1.82124309	     -1.97631347	     32.61357494	      0.56921426	      5.05636298	    -23.27729976	     -7.49999987	     24.36171257	      2.06670535	      1.95127787	     30.00690201	      0.52371924	      5.78816486	    -17.81660258	     -7.49999987	    -24.47741336	      1.84004366	     -1.97659748	      9.42920104	     -4.26672687	     -0.24937256	     32.34454464	     89.59736789	     12.42229706	     -5.62443304	     16.64604638	     34.41780733	     97.42860702
      1.64583330	     -7.90615276	      0.75508575	      1.16702701	     -0.98454238	      1.20284963	     -0.07331494	     27.08854303	     -1.86499018	     -2.02754650	     32.81008164	      0.57264395	      5.46293546	    -22.79300648	     -7.49999987	     24.65183135	      2.09720119	      1.97335163	     30.15150450	      0.52624303	      5.73211456	    -18.13962214	     -7.49999987	    -24.20980768	      1.81408829	     -1.94949166	      9.26072890	     -4.14778312	     -1.00023506	     32.45206804	     92.04658114	     12.42201566	     -5.58494982	     16.30044703	     34.37114973	    100.58136976
      1.65000000	     -8.16873219	      0.79430488	      1.16320181	     -0.98309956	      1.19934615	     -0.07443766	     27.54099328	     -1.94848820	     -1.96526840	     33.16089156	      0.57876674	      5.49862478	    -23.05112474	     -7.49999987	     25.05889100	      2.20006329	      1.99149637	     30.36866727	      0.53003323	      5.68502317	    -18.41631502	     -7.49999987	    -23.85095812	      1.83349334	     -2.05026735	      9.17795580	     -4.11944532	     -0.97803728	     32.53093868	     89.92808259	     12.26643818	     -5.56541421	     16.25606730	     34.46758718	     98.33417330
